<?xml version="1.0" encoding="UTF-8"?>
<svg id="Layer_1" data-name="Layer 1" xmlns="http://www.w3.org/2000/svg" viewBox="0 0 513.68 511.13">
  <defs>
    <style>
      .cls-1, .cls-2 {
        fill: #fff;
      }

      .cls-1, .cls-3 {
        opacity: .99;
      }

      .cls-4 {
        fill: #ed2024;
        font-family: BradleyHandITCTT-Bold, 'Bradley Hand';
        font-size: 67.99px;
        font-weight: 700;
      }
    </style>
  </defs>
  <g>
    <rect y="28.93" width="398.51" height="383.56" rx="52.18" ry="52.18"/>
    <rect class="cls-2" x="31.75" y="59.49" width="336.42" height="322.44" rx="21.2" ry="21.2"/>
    <rect x="31.75" y="130.01" width="336.42" height="30.48"/>
    <rect x="77.51" y="0" width="30.78" height="91.48" rx="13.15" ry="13.15"/>
    <rect x="291.6" y="0" width="30.78" height="91.48" rx="13.15" ry="13.15"/>
  </g>
  <g>
    <path class="cls-2" d="M245.66,297.27l-134.75,75.71c-1.55,4.35.86,8.36,5.24,9.16,31.82,1.33,66.33-3.16,97.84-1.19,11.69.73,17.4,5.28,20.74,16.5l21.79,97.34c2.01,2.35,5.17,3.44,7.98,1.82,3.23-1.86,8.75-26.65,11.19-34.42h0s10.7-35.75,10.7-35.75c.04-.41.11-.82.22-1.25,7.89-22.57,12.16-48.18,20.41-70.42,3.51-9.46,4.45-10.86,13.87-14.96,9.88-4.29,75.24-24.19,77.12-27.83.95-1.85.46-5.24-.65-7.04l-3.08-2.06-64.14-12.13-23.37,29.94c-3.35,2.57-5.48,2.47-9.1.64-2-1.01-22.9-17.67-24.08-19.23-1.56-2.06-2.15-3.44-1.88-6.13l38.24-47.97h-33.13c-11.26,15.79-18.72,34.56-31.16,49.26Z"/>
    <polygon class="cls-1" points="444.64 66.25 455.24 66.73 464.59 82.12 490.95 91.36 475.12 109.82 416.05 165.47 303.03 314.16 278.91 296.86 378.07 170.84 424.26 117.08 444.64 66.25"/>
    <g>
      <path d="M248.77,327.39c2.07-.24,4.21.97,5.95,1.97,2.93,1.68,20.25,15.37,22.16,17.68,2.18,2.64,2.95,4.61,2.28,8.12-.29,1.55-13.44,18.47-15.31,20.11-3.97,3.48-5.15,4.24-9.92,1.59-3.44-1.91-21.01-15.89-23.63-18.8-3.24-3.6-3.48-5.11-1.11-9.58,1.22-2.29,12.61-16.53,14.61-18.3,1.3-1.14,3.23-2.6,4.95-2.79ZM250.56,343.41l-6.95,8.75,13.12,10.43,6.95-8.75-13.12-10.43Z"/>
      <polygon points="372.98 192.67 383.44 200.56 374.66 211.22 364.44 203.08 372.98 192.67"/>
      <path class="cls-3" d="M513.63,87.86c0-2.27-1.29-4.59-3.29-5.66-5.81-3.12-33,1.11-41.09.65-2-1.37-5.45-37.29-10-41.38-9.41-8.45-14.72,13.52-17.17,19.07-2.17,1.66-10.06-11.59-16.13-3.01-6.08,8.6,9.95,12.52,9.75,17.13l-1.94,5.25c-4.32-3.81-15.32-11.74-17.99-2.1-2.61,9.46,18.53,10.88,9.25,21.5-5.92-5.9-15.09-11.73-17.08.64.57,4.89,8.71,8.19,11.66,11.82l-2.2,5.91-96.7,117.64c-3.69,2.1-35.07-1.82-42.63-.93-5.32.62-9.94,3.58-13.18,7.69-10.07,12.79-16.63,32.31-27.46,45.1l-130.93,73.04c-5.53,3.27-8.17,7.96-9.47,14.13l.89,7.79c3.72,7.42,9.41,13,18.14,13.34l98.56-1.11c3.28.21,6.28,2.6,7.23,5.76,7.83,33.92,13.29,68.97,23.59,102.01,3.57,5.23,8.69,7.32,14.53,8.97l7.79-.89c2.59-2.02,5.34-2.7,7.73-5.27,2.67-2.88,12-32.56,13.99-41.71h0s11.52-39.15,11.52-39.15h0c6.27-18.46,15.77-61.31,20.15-69.5l79.02-28.49c15.55-5.87,14.92-27.06.96-34.43l-62.26-12.8,105.27-137,6.96-5.07c5.19,2.73,13.55,14.64,19.54,7.08,5.63-7.09-4.26-10.4-7.52-14.24-.68-.81-1.49-.55-.16-1.71l5.76-3.33c4.68,3.11,13.77,14.46,19.27,7.27,5.53-7.21-4.77-11.04-7.86-14.69-.68-.81-1.49-.55-.16-1.71l5.18-2.69c4.36,3.38,15.76,13.98,18.8,3.66,2.19-7.44-4.78-7.48-7.78-12.48.21-2.02,18.57-10.55,17.46-16.13ZM326,250.02l11.89,8.95-7.57,9.78-12.41-8.82-.54.61,8.63-10.51ZM321.62,279.98l-6.46,8.35-12.76-9.56,6.73-8.19,12.5,9.4ZM306.57,299.42l-6.15,7.95-13-10.35,5.95-7.25,13.2,9.65ZM394.27,303.28l3.08,2.06c1.1,1.8,1.6,5.19.65,7.04-1.88,3.65-67.24,23.54-77.12,27.83-9.42,4.09-10.36,5.5-13.87,14.96-8.25,22.23-12.52,47.85-20.41,70.42-.11.43-.18.84-.22,1.25l-10.7,35.75h0c-2.44,7.77-7.96,32.56-11.19,34.42-2.81,1.62-5.97.54-7.98-1.82l-21.79-97.34c-3.33-11.22-9.05-15.77-20.74-16.5-31.5-1.97-66.01,2.51-97.84,1.19-4.38-.8-6.79-4.81-5.24-9.16l134.75-75.71c12.44-14.7,19.9-33.47,31.16-49.25h33.13s-38.24,47.96-38.24,47.96c-.27,2.68.32,4.07,1.88,6.13,1.18,1.56,22.08,18.23,24.08,19.23,3.62,1.83,5.75,1.93,9.1-.64l23.37-29.94,64.14,12.13ZM346.59,247.72l-11.81-8.4,9.36-11.4c.85-.25,11.21,7.04,10.63,9.24l-8.18,10.56ZM363.46,225.29l-10.22-8.13,11.2-14.08,10.22,8.13-11.2,14.08ZM383.44,200.56l-10.46-7.89,11.9-13.25,8.33,7.19-9.77,13.95ZM401.02,175.38l-7.31-5.81-.19-1.71,10.35-12.57,8.02,6.38-10.87,13.7ZM420.43,150.9l-7.99-6.03,10.53-12.78,7.93,5.61-10.47,13.19ZM440.99,127.88l-10.29-6.95,21.17-51.84c1.43,0,2.02,3.5,2.25,4.57,1.06,4.93,1.93,18.7,5.97,21.21,4.16,2.57,19.78-.5,25.43.22l-44.52,32.78Z"/>
    </g>
  </g>
  <text class="cls-4" transform="translate(62.42 127.88)"><tspan x="0" y="0">Shrendar</tspan></text>
</svg>